<?xml version="1.0" encoding="UTF-8"?>
<!DOCTYPE svg PUBLIC "-//W3C//DTD SVG 1.1//EN" "http://www.w3.org/Graphics/SVG/1.1/DTD/svg11.dtd">
<!-- Creator: CorelDRAW 2017 -->
<svg xmlns="http://www.w3.org/2000/svg" xml:space="preserve" width="181px" height="256px" version="1.1" style="shape-rendering:geometricPrecision; text-rendering:geometricPrecision; image-rendering:optimizeQuality; fill-rule:evenodd; clip-rule:evenodd"
viewBox="0 0 181 255.99"
 xmlns:xlink="http://www.w3.org/1999/xlink">
 <defs>
  <style type="text/css">
   <![CDATA[
    .fil0 {fill:#2196F3}
   ]]>
  </style>
 </defs>
 <g id="图层_x0020_1">
  <metadata id="CorelCorpID_0Corel-Layer"/>
  <path class="fil0" d="M90.29 205.82c-49.1,0.16 -89.52,-40.14 -89.67,-89.39 -0.14,-48.98 38.86,-88.96 87.46,-90.17l4.57 0c47.66,1.2 86.17,39.53 87.51,87.15l0 5.05c-1.29,48.5 -40.81,87.2 -89.87,87.36zm1.75 -3.25c-6.7,-28.49 7.98,-72.42 52.4,-86.3 -0.5,-0.3 -0.86,-0.62 -1.27,-0.76 -13.87,-4.88 -27.75,-9.71 -41.6,-14.66 -1.94,-0.69 -3.14,-0.45 -4.57,1.09 -20.12,21.74 -26.38,46.82 -18.22,75.39 1.76,6.19 4.71,11.88 8.29,17.83 -1.72,-0.82 -2.18,-1.95 -2.79,-2.89 -14.64,-22.64 -17.3,-46.55 -7.19,-71.65 1.02,-2.54 0.62,-3.27 -1.88,-4.11 -9.14,-3.07 -18.23,-6.3 -27.27,-9.67 -2.79,-1.04 -3.98,-0.82 -4.05,2.49 -0.15,6.6 -0.33,13.18 0.57,19.74 4.36,31.68 20.4,55.82 47.58,73.5zm18.45 -170.14c-0.69,13.98 -8.21,22.95 -20.15,28.97 -6.41,3.23 -12.74,6.66 -18.86,10.38 -6.61,4.03 -12.37,9.09 -15.36,16.53 -3.62,9.04 0.24,16.86 9.63,19.52 2.02,0.57 4.16,0.91 6.25,0.97 14.33,0.46 27.42,-11.33 30,-27.08 -0.98,0.9 -1.82,1.71 -2.7,2.48 -4.78,4.1 -9.85,7.75 -16.17,8.98 -2.63,0.52 -5.81,1.04 -7.27,-1.96 -1.34,-2.75 0.8,-4.9 2.62,-6.75 2.67,-2.74 5.98,-4.55 9.35,-6.25 17.37,-8.8 24.84,-25.8 22.66,-45.79z"/>
 </g>
</svg>
