<?xml version="1.0" encoding="utf-8"?>
<!-- Generator: Adobe Illustrator 23.0.1, SVG Export Plug-In . SVG Version: 6.00 Build 0)  -->
<svg version="1.1" id="图层_1" xmlns="http://www.w3.org/2000/svg" xmlns:xlink="http://www.w3.org/1999/xlink" x="0px" y="0px"
	 viewBox="0 0 257.16 257.17" style="enable-background:new 0 0 257.16 257.17;" xml:space="preserve">
<g>
	<g>
		<path d="M139.56,254.15c-45.58-25.62-76.65-85.81-68.8-142.26c11.39,4.01,22.71,7.98,34.03,11.97c3.94,1.39,7.8,3.03,11.82,4.14
			c3.27,0.91,3.52,2.15,2.24,5.19c-12.61,30.08-12.27,60.17,0.66,90.04c4.38,10.11,10.11,19.47,18.37,27.2
			c-0.89-1.43-1.75-2.88-2.69-4.28c-28.87-43.06-22.73-104,14.01-140.22c2.21-2.18,3.9-2.66,6.88-1.58
			c20.97,7.58,42.03,14.93,62.82,22.26C161.02,149.76,134.59,192.22,139.56,254.15z" fill="#2196F3"/>
		<path d="M154.85,77.86c-4.38,19.58-17.96,33.49-35.62,36.6c-5.83,1.03-11.72,0.77-17.38-0.91c-14.69-4.37-19.66-17.99-11.87-32
			c5.92-10.64,15.21-17.62,25.53-23.42c8.3-4.66,16.78-9.02,25.1-13.65c18.63-10.35,24.66-18.51,28.9-38.79
			c1.16,27.99-10,49.92-31.75,62.07c-5.54,3.1-11.43,5.65-16.03,10.14c-3.32,3.24-7.21,6.62-4.98,12.04
			c1.42,3.45,6.93,4.26,13.22,2.76C139.71,90.38,147.16,84.19,154.85,77.86z" fill="#2196F3"/>
	</g>
</g>
</svg>
